<?xml version="1.0" encoding="UTF-8" standalone="no"?>
<svg
   version="1.0"
   width="30pt"
   height="30pt"
   viewBox="0 0 30 30"
   preserveAspectRatio="xMidYMid meet"
   id="svg12"
   sodipodi:docname="alerta.svg"
   inkscape:version="1.1 (c68e22c387, 2021-05-23)"
   xmlns:inkscape="http://www.inkscape.org/namespaces/inkscape"
   xmlns:sodipodi="http://sodipodi.sourceforge.net/DTD/sodipodi-0.dtd"
   xmlns="http://www.w3.org/2000/svg"
   xmlns:svg="http://www.w3.org/2000/svg">
  <defs
     id="defs16" />
  <sodipodi:namedview
     id="namedview14"
     pagecolor="#ffffff"
     bordercolor="#666666"
     borderopacity="1.0"
     inkscape:pageshadow="2"
     inkscape:pageopacity="0.0"
     inkscape:pagecheckerboard="0"
     inkscape:document-units="pt"
     showgrid="false"
     inkscape:zoom="2.0834813"
     inkscape:cx="210.46505"
     inkscape:cy="35.037511"
     inkscape:window-width="1920"
     inkscape:window-height="986"
     inkscape:window-x="-11"
     inkscape:window-y="-11"
     inkscape:window-maximized="1"
     inkscape:current-layer="svg12" />
  <metadata
     id="metadata2">
Created by potrace 1.15, written by Peter Selinger 2001-2017
</metadata>
  <g
     transform="matrix(0.00197681,0,0,-0.00208979,2.0329044,26.640809)"
     fill="#f44336"
     stroke="none"
     id="g10">
    <path
       d="m 6201,11240 c -41,-10 -113,-37 -160,-61 -70,-35 -105,-62 -187,-144 -61,-60 -124,-134 -157,-185 C 5612,10718 5016,9668 2735,5635 1942,4233 1021,2603 688,2015 355,1426 71,917 57,884 -22,697 -15,490 76,325 91,297 140,239 184,195 275,105 361,56 490,20 l 76,-20 5879,2 5880,3 81,27 c 363,124 494,499 304,878 -21,43 -899,1580 -1951,3417 -1052,1836 -2308,4029 -2791,4873 -484,844 -909,1580 -946,1635 -118,177 -268,311 -419,373 -125,52 -272,64 -402,32 z M 7808,7830 C 8601,6447 9827,4307 10532,3075 L 11815,835 9103,832 c -1492,-1 -3934,-1 -5427,0 l -2715,3 1666,2945 c 3188,5637 3725,6583 3734,6572 4,-4 655,-1139 1447,-2522 z"
       id="path4" />
    <path
       d="m 6290,7874 c -14,-3 -61,-14 -104,-25 -390,-98 -706,-474 -706,-837 0,-46 22,-254 50,-461 27,-207 113,-857 190,-1446 201,-1535 199,-1517 216,-1581 42,-165 141,-297 271,-361 67,-33 86,-38 168,-41 152,-7 246,30 348,136 99,105 144,224 176,464 11,84 61,462 111,841 49,378 131,996 180,1375 50,378 100,756 111,840 24,182 25,305 4,387 -82,323 -360,599 -693,686 -75,20 -266,33 -322,23 z"
       id="path6" />
    <path
       d="m 6322,2739 c -345,-44 -594,-371 -552,-726 20,-166 86,-301 204,-410 114,-107 237,-160 391,-170 187,-11 336,47 475,187 134,134 192,273 193,465 1,116 -13,183 -58,280 -120,261 -379,409 -653,374 z"
       id="path8" />
  </g>
</svg>
