<?xml version="1.0" encoding="UTF-8" standalone="no"?>
<!-- Created with Inkscape (http://www.inkscape.org/) -->

<svg
   xmlns:dc="http://purl.org/dc/elements/1.1/"
   xmlns:cc="http://creativecommons.org/ns#"
   xmlns:rdf="http://www.w3.org/1999/02/22-rdf-syntax-ns#"
   xmlns:svg="http://www.w3.org/2000/svg"
   xmlns="http://www.w3.org/2000/svg"
   xmlns:sodipodi="http://sodipodi.sourceforge.net/DTD/sodipodi-0.dtd"
   xmlns:inkscape="http://www.inkscape.org/namespaces/inkscape"
   width="480"
   height="120"
   id="svg2"
   version="1.1"
   inkscape:version="0.48.2 r9819"
   sodipodi:docname="logo-alura">
  <defs
     id="defs4">
    <filter
       id="filter3038"
       inkscape:label="Oil painting"
       inkscape:menu="Image effects"
       inkscape:menu-tooltip="Simulate oil painting style"
       color-interpolation-filters="sRGB">
      <feMorphology
         id="feMorphology3040"
         radius="2"
         in="SourceGraphic"
         result="result0" />
      <feTurbulence
         id="feTurbulence3042"
         numOctaves="1"
         baseFrequency="0.078"
         result="result91" />
      <feDisplacementMap
         id="feDisplacementMap3044"
         in2="result91"
         in="result0"
         scale="6.3"
         xChannelSelector="R"
         yChannelSelector="G" />
    </filter>
  </defs>
  <sodipodi:namedview
     id="base"
     pagecolor="#ffffff"
     bordercolor="#666666"
     borderopacity="1.0"
     inkscape:pageopacity="0.0"
     inkscape:pageshadow="2"
     inkscape:zoom="0.49497475"
     inkscape:cx="37.218261"
     inkscape:cy="836.47786"
     inkscape:document-units="px"
     inkscape:current-layer="layer1"
     showgrid="false"
     inkscape:window-width="1920"
     inkscape:window-height="1017"
     inkscape:window-x="-8"
     inkscape:window-y="-8"
     inkscape:window-maximized="1" />
  <metadata
     id="metadata7">
    <rdf:RDF>
      <cc:Work
         rdf:about="">
        <dc:format>image/svg+xml</dc:format>
        <dc:type
           rdf:resource="http://purl.org/dc/dcmitype/StillImage" />
        <dc:title></dc:title>
      </cc:Work>
    </rdf:RDF>
  </metadata>
  <g
     inkscape:label="Capa 1"
     inkscape:groupmode="layer"
     id="layer1"
     transform="translate(0,-932.36218)">
    <g
       transform="matrix(0.38077,0,0,0.38077,17.776757,970.93738)"
       id="LOGO">
      <g
         id="g23">
        <g
           id="g9">
          <path
             id="path7"
             d="m 55.6,0.3 h 9.5 c 0.5,0 0.9,0.4 0.9,0.9 v 95.3 c 0,0.5 -0.4,0.9 -0.9,0.9 h -9.5 c -0.5,0 -0.9,-0.4 -0.9,-0.9 V 1.2 c 0,-0.5 0.4,-0.9 0.9,-0.9 z M 121,78.7 v 2.4 c 0,1.1 -0.2,2.5 -0.6,4.3 -0.3,1.7 -1.2,3.6 -2.8,5.3 -1.5,1.7 -3.7,3.3 -6.8,4.7 -3.1,1.2 -7.2,1.9 -12.6,1.9 -5.4,0 -9.5,-0.7 -12.6,-1.9 C 82.5,94.2 80.4,92.6 78.8,90.7 77.3,89 76.3,87.1 76,85.3 75.7,83.5 75.4,82.1 75.4,81.1 V 26.8 c 0,-0.5 0.4,-0.9 0.9,-0.9 h 9.5 c 0.5,0 0.9,0.4 0.9,0.9 v 50.8 c 0,1.7 0.2,2.9 0.5,3.8 0.2,1 0.7,1.9 1.4,2.7 0.7,0.9 1.8,1.6 3.3,2.2 1.4,0.6 3.4,0.9 5.9,0.9 2.6,0 4.7,-0.3 6.2,-0.9 1.5,-0.6 2.7,-1.2 3.4,-2.1 0.8,-0.8 1.3,-1.7 1.6,-2.7 0.2,-1 0.6,-1.7 0.6,-4.1 V 26.8 c 0,-0.5 0.4,-0.9 0.9,-0.9 h 9.5 c 0.5,0 0.9,0.4 0.9,0.9 z M 153.4,26 h 6.4 c 0.6,0 1,0.6 0.8,1.1 l -2.2,8.3 c -0.1,0.4 -0.5,0.7 -0.8,0.7 h -4.5 c -2.4,0 -4.3,0.3 -5.8,1 -1.4,0.7 -2.7,1.3 -3.4,2.2 -0.7,0.9 -1.2,1.7 -1.5,2.7 -0.2,1 -0.3,1.8 -0.3,2.7 v 51.9 c 0,0.5 -0.4,0.9 -0.9,0.9 h -9.6 c -0.5,0 -0.9,-0.4 -0.9,-0.9 V 42.3 c 0,-1 0.2,-2.4 0.6,-4.2 0.3,-1.8 1.2,-3.6 2.8,-5.4 1.5,-1.7 3.7,-3.3 6.8,-4.7 3,-1.4 7.2,-2 12.5,-2 z M 22.6,26 c 7.7,0 13.5,1.5 17.1,4.6 3.6,3.1 5.4,6.9 5.4,11.5 v 39 c 0,1.6 -0.3,3.3 -0.9,5.2 -0.6,1.9 -1.7,3.7 -3.3,5.2 -1.7,1.6 -4,2.9 -6.9,4 -2.9,1.1 -6.7,1.6 -11.4,1.6 -4.7,0 -8.5,-0.6 -11.4,-1.6 C 8.3,94.5 6,93.1 4.3,91.5 2.6,89.9 1.5,88.2 1,86.3 0.4,84.5 0,82.7 0,81.1 V 74.9 C 0,71.6 0.9,68.5 2.6,65.7 4.4,63 6.8,61 9.9,59.9 c 1.6,-0.6 3.3,-1.1 5.4,-1.8 2,-0.7 4,-1.3 5.9,-2.1 1.9,-0.7 3.5,-1.2 5,-1.7 1.4,-0.6 2.3,-0.8 2.7,-1 0.3,-0.2 0.8,-0.4 1.3,-0.7 0.6,-0.3 1.1,-0.8 1.7,-1.3 0.6,-0.7 1,-1.3 1.3,-2.1 0.4,-0.8 0.6,-1.7 0.6,-2.8 v -2.5 c 0,-0.9 -0.2,-1.7 -0.6,-2.7 -0.3,-1 -1,-1.7 -1.8,-2.6 -0.8,-0.8 -2.1,-1.4 -3.5,-1.9 -1.4,-0.5 -3.2,-0.7 -5.5,-0.7 -4.4,0 -7.3,0.9 -9,2.7 -1.3,1.6 -2.2,3.5 -2.3,5.7 0,0.5 -0.4,0.8 -0.9,0.8 H 0.9 C 0.4,45.2 0,44.8 0,44.3 V 42 C 0,39.8 0.4,37.7 1.2,35.8 2,33.7 3.4,32 5.3,30.5 7.1,29.1 9.5,27.8 12.4,27.1 15.2,26.5 18.6,26 22.6,26 z M 34,61.1 c -0.2,0.9 -0.7,1.5 -1.3,2 -0.7,0.5 -1.3,0.7 -2,1 -1.3,0.5 -2.8,1 -4.3,1.5 -1.5,0.6 -3,1.1 -4.3,1.5 -1.6,0.6 -3.2,1.1 -4.5,1.6 -1.1,0.5 -2.1,1.1 -3.1,1.8 -0.8,0.7 -1.5,1.6 -2.2,2.7 -0.7,1.2 -1,2.5 -1,4.2 0,3.3 0.8,5.8 2.4,7.5 1.6,1.6 4.6,2.5 8.9,2.5 4.4,0 7.4,-0.9 9.1,-2.6 1.6,-1.7 2.4,-4.2 2.4,-7.3 z M 187.6,26 c 7.7,0 13.5,1.5 17.1,4.6 3.6,3.1 5.4,6.9 5.4,11.5 v 39 c 0,1.6 -0.3,3.3 -0.9,5.2 -0.6,1.9 -1.7,3.7 -3.3,5.2 -1.6,1.5 -4,2.9 -6.9,4 -2.9,1.1 -6.7,1.6 -11.4,1.6 -4.7,0 -8.5,-0.6 -11.4,-1.6 -2.9,-1 -5.2,-2.4 -6.9,-4 -1.7,-1.6 -2.8,-3.3 -3.3,-5.2 -0.6,-1.9 -0.9,-3.7 -0.9,-5.2 v -6.2 c 0,-3.3 0.9,-6.4 2.6,-9.2 1.7,-2.7 4.2,-4.7 7.3,-5.8 1.6,-0.6 3.3,-1.1 5.4,-1.8 2,-0.7 4,-1.3 5.9,-2.1 1.9,-0.7 3.5,-1.2 5,-1.7 1.4,-0.6 2.3,-0.8 2.7,-1 0.3,-0.2 0.8,-0.4 1.3,-0.7 0.6,-0.3 1.1,-0.8 1.7,-1.3 0.6,-0.7 1,-1.3 1.3,-2.1 0.4,-0.8 0.6,-1.7 0.6,-2.8 v -2.5 c 0,-0.9 -0.2,-1.7 -0.6,-2.7 -0.3,-1 -1,-1.7 -1.8,-2.6 -0.9,-0.8 -2.1,-1.4 -3.5,-1.9 -1.4,-0.5 -3.2,-0.7 -5.5,-0.7 -4.4,0 -7.3,0.9 -9,2.7 -1.3,1.6 -2.2,3.5 -2.3,5.7 0,0.5 -0.4,0.8 -0.9,0.8 h -9.6 c -0.5,0 -0.9,-0.4 -0.9,-0.9 V 42 c 0,-2.2 0.4,-4.3 1.2,-6.2 0.8,-1.9 2.2,-3.7 4.1,-5.2 1.8,-1.4 4.2,-2.7 7.1,-3.4 3,-0.7 6.4,-1.2 10.4,-1.2 z m 11.3,35.1 c -0.2,0.9 -0.7,1.5 -1.3,2 -0.7,0.5 -1.3,0.7 -2,1 -1.3,0.5 -2.8,1 -4.3,1.5 -1.5,0.6 -3,1.1 -4.3,1.5 -1.6,0.6 -3.2,1.1 -4.5,1.6 -1.1,0.5 -2.1,1.1 -3.1,1.8 -0.8,0.7 -1.5,1.6 -2.2,2.7 -0.7,1.1 -1,2.5 -1,4.2 0,3.3 0.8,5.8 2.4,7.5 1.6,1.6 4.6,2.5 8.9,2.5 4.4,0 7.4,-0.9 9.1,-2.6 1.6,-1.7 2.4,-4.2 2.4,-7.3 z"
             class="st2"
             inkscape:connector-curvature="0"
             style="fill:#727374" />
        </g>
        <g
           id="g21">
          <path
             id="path11"
             d="m 70,111.8 c 0,-0.5 0.4,-0.9 0.9,-0.9 h 5.5 c 0.5,0 0.9,0.4 0.9,0.9 v 24.5 h 10.9 c 0.5,0 0.9,0.4 0.9,0.9 v 5 c 0,0.5 -0.4,0.9 -0.9,0.9 H 70.9 c -0.5,0 -0.9,-0.4 -0.9,-0.9 z"
             class="st2"
             inkscape:connector-curvature="0"
             style="fill:#727374" />
          <path
             id="path13"
             d="m 90.9,141.9 14.3,-30.8 c 0.1,-0.3 0.5,-0.5 0.8,-0.5 h 0.5 c 0.3,0 0.6,0.2 0.8,0.5 l 14.3,30.8 c 0.3,0.6 -0.1,1.2 -0.8,1.2 h -5.1 c -0.8,0 -1.2,-0.3 -1.6,-1.1 l -1.6,-3.6 H 100 l -1.6,3.7 c -0.2,0.5 -0.7,1.1 -1.6,1.1 h -5 c -0.9,-0.1 -1.2,-0.7 -0.9,-1.3 z m 18.8,-9.8 -3.5,-7.6 -3.4,7.6 z"
             class="st2"
             inkscape:connector-curvature="0"
             style="fill:#727374" />
          <path
             id="path15"
             d="m 127.8,117.7 h -6.6 c -0.5,0 -0.9,-0.4 -0.9,-0.9 v -5 c 0,-0.5 0.4,-0.9 0.9,-0.9 h 20.3 c 0.5,0 0.9,0.4 0.9,0.9 v 5 c 0,0.5 -0.4,0.9 -0.9,0.9 H 135 v 24.5 c 0,0.5 -0.4,0.9 -0.9,0.9 h -5.5 c -0.5,0 -0.9,-0.4 -0.9,-0.9 v -24.5 z"
             class="st2"
             inkscape:connector-curvature="0"
             style="fill:#727374" />
          <path
             id="path17"
             d="m 141.3,141.9 14.3,-30.8 c 0.1,-0.3 0.5,-0.5 0.8,-0.5 h 0.5 c 0.3,0 0.6,0.2 0.8,0.5 l 14.3,30.8 c 0.3,0.6 -0.1,1.2 -0.8,1.2 h -5.1 c -0.8,0 -1.2,-0.3 -1.6,-1.1 l -1.6,-3.6 h -12.5 l -1.6,3.7 c -0.2,0.5 -0.7,1.1 -1.7,1.1 h -5 c -0.7,-0.1 -1.1,-0.7 -0.8,-1.3 z m 18.8,-9.8 -3.5,-7.6 -3.4,7.6 z"
             class="st2"
             inkscape:connector-curvature="0"
             style="fill:#727374" />
          <path
             id="path19"
             d="m 178.9,111.2 c 0,-0.4 0.5,-0.7 0.8,-0.7 h 0.7 c 0.2,0 0.6,0.2 0.8,0.5 l 10.6,19.8 h 0.1 L 202.5,111 c 0.1,-0.3 0.6,-0.5 0.8,-0.5 h 0.7 c 0.4,0 0.8,0.3 0.8,0.7 L 210,142 c 0.1,0.6 -0.3,1 -0.9,1 h -5.4 c -0.4,0 -0.8,-0.4 -0.9,-0.7 l -2.1,-14.2 h -0.1 l -7.7,14.8 c -0.1,0.3 -0.5,0.5 -0.8,0.5 h -0.8 c -0.3,0 -0.6,-0.2 -0.8,-0.5 l -7.7,-14.8 h -0.1 l -2,14.2 c 0,0.4 -0.4,0.7 -0.9,0.7 h -5.4 c -0.6,0 -1,-0.4 -0.9,-1 z"
             class="st2"
             inkscape:connector-curvature="0"
             style="fill:#727374" />
        </g>
      </g>
    </g>
    <flowRoot
       xml:space="preserve"
       id="flowRoot3046"
       style="font-size:40px;font-style:normal;font-variant:normal;font-weight:normal;font-stretch:normal;line-height:125%;letter-spacing:0px;word-spacing:0px;fill:#000000;fill-opacity:1;stroke:none;font-family:Castellar;-inkscape-font-specification:Castellar"><flowRegion
         id="flowRegion3048"><rect
           id="rect3050"
           width="257.85715"
           height="44.285713"
           x="141.42857"
           y="86.647896" /></flowRegion><flowPara
         id="flowPara3052"></flowPara></flowRoot>    <flowRoot
       xml:space="preserve"
       id="flowRoot3056"
       style="font-size:40px;font-style:normal;font-variant:normal;font-weight:normal;font-stretch:normal;line-height:125%;letter-spacing:0px;word-spacing:0px;fill:#333333;fill-opacity:1;stroke:none;font-family:Castellar;-inkscape-font-specification:Castellar"><flowRegion
         id="flowRegion3058"><rect
           id="rect3060"
           width="302.85715"
           height="65.714287"
           x="138.57143"
           y="79.505035"
           style="fill:#333333" /></flowRegion><flowPara
         id="flowPara3062"></flowPara></flowRoot>    <flowRoot
       xml:space="preserve"
       id="flowRoot3064"
       style="font-size:40px;font-style:normal;font-variant:normal;font-weight:normal;font-stretch:normal;line-height:125%;letter-spacing:0px;word-spacing:0px;fill:#000000;fill-opacity:1;stroke:none;font-family:Castellar;-inkscape-font-specification:Castellar"><flowRegion
         id="flowRegion3066"><rect
           id="rect3068"
           width="255"
           height="51.42857"
           x="156.42857"
           y="155.21933" /></flowRegion><flowPara
         id="flowPara3070"></flowPara></flowRoot>    <text
       xml:space="preserve"
       style="font-size:40px;font-style:normal;font-variant:normal;font-weight:normal;font-stretch:normal;line-height:125%;letter-spacing:0px;word-spacing:0px;fill:#000000;fill-opacity:1;stroke:none;font-family:Castellar;-inkscape-font-specification:Castellar"
       x="327.85715"
       y="179.50504"
       id="text3072"
       sodipodi:linespacing="125%"><tspan
         sodipodi:role="line"
         id="tspan3074"
         x="327.85715"
         y="179.50504"></tspan></text>
    <flowRoot
       xml:space="preserve"
       id="flowRoot3090"
       style="font-size:40px;font-style:normal;font-variant:normal;font-weight:normal;font-stretch:normal;line-height:125%;letter-spacing:0px;word-spacing:0px;fill:#241c1c;fill-opacity:1;stroke:none;font-family:Castellar;-inkscape-font-specification:Castellar"><flowRegion
         id="flowRegion3092"><rect
           id="rect3094"
           width="272.85715"
           height="50.714287"
           x="145"
           y="138.79076"
           style="fill:#241c1c" /></flowRegion><flowPara
         id="flowPara3096"></flowPara></flowRoot>    <g
       id="g3231"
       transform="translate(-27.223356,862.36209)">
      <g
         id="g3228">
        <path
           style="font-size:28.00000191px;font-style:normal;font-variant:normal;font-weight:bold;font-stretch:normal;text-align:start;line-height:125%;letter-spacing:0px;word-spacing:0px;writing-mode:lr-tb;text-anchor:start;fill:#999999;fill-opacity:1;stroke:none;font-family:Century;-inkscape-font-specification:Century Bold"
           d="m 187.75,127.38839 c -2.38006,-0.58934 -5.2091,5.26384 -4.65625,1.375 -5.29125,-6.20637 -10.02593,5.80866 -10.09776,1.07051 -1.88058,-4.43721 -8.7796,-0.90063 -12.71474,-2.07051 -8.67531,-2.204 -8.22541,4.01952 -5.6875,8.5625 1.28586,7.15045 -1.7934,9.93576 -1.78125,15.8125 7.28125,0 14.5625,0 21.84375,0 -1.42544,-10.47328 2.70272,4.87888 6.59375,-1 0.10883,-3.0455 -0.57176,-8.01415 1.09375,-2.875 1.57885,4.02866 7.44421,6.07181 10.5,2.53125 1.06012,3.22831 8.27476,0.29506 11.09375,1.4375 6.6031,-0.11229 13.36532,-0.10788 20.03125,-0.0937 2.4797,-4.7516 -5.05762,-6.36407 -1.28125,-9 3.11626,0.27259 5.33109,-5.76654 7.1875,-2.34375 2.014,5.20312 -7.06739,11.23946 1.9375,11.34375 9.92424,-0.52528 20.17694,0.98387 29.9375,-0.59375 2.13761,-0.66842 3.54006,-3.56203 4.34375,-4.6875 1.2503,5.54927 9.08001,8.07766 12.28125,2.6875 -0.66988,5.23086 8.0354,1.39893 10.9375,2.65625 4.99048,1.06306 5.76031,-5.48367 5.5,-8.96875 -3.41982,1.2436 -4.34112,-2.92693 -2.21875,-4.71875 2.69328,-5.01726 -1.34325,-12.3094 -7.46875,-10.75 -5.48113,-2.74671 -5.98711,4.29898 -8.28125,1.0625 -3.99602,-3.60403 -9.75814,0.0284 -10.90625,4.5625 -1.41236,-6.08737 -8.36665,-6.39771 -13.4375,-5.625 -5.67511,2.80209 2.78842,7.26305 0.0312,13.5625 0.70594,11.19956 -1.84084,-1.62669 -2.87752,-5.41601 0.62853,-5.15024 -5.20509,-13.48018 -6.99687,-5.11609 -1.89035,9.61622 -2.48365,7.60797 -2.34327,-1.05777 -0.99803,-3.68295 -12.14663,-2.19817 -14.65386,-0.97301 -5.66096,-2.37815 -13.28951,-0.30271 -19.59723,-0.99962 0.8595,3.85391 -2.2881,-0.88955 -4.4375,0 -5.21658,-0.0774 -9.0567,-0.18249 -13.875,-0.375 z m 198.3125,0 c -2.40759,-0.57199 -5.32898,5.37551 -4.81349,1.31302 -3.76106,-2.14054 -11.29686,-0.38262 -16.59276,-0.93802 -11.92708,0 -23.85417,0 -35.78125,0 1.04071,4.18244 -3.68431,13.93205 3.65625,12.03125 3.91761,4.81392 -5.67706,10.00901 0.46875,12.34375 15.35417,0 30.70833,0 46.0625,0 1.52705,-4.79637 -5.79424,-9.33116 -0.25,-12.34375 -0.41224,5.51646 2.97054,14.39954 9.9375,12.53125 7.70029,-3.98672 7.88846,-15.75945 3.3125,-22.21875 -1.43015,-1.7641 -3.66906,-3.05742 -6,-2.71875 z m -89.5,2.375 c 1.76266,4.10193 2.64819,9.08098 2.03125,15.5625 -4.49274,3.5163 -1.24766,9.08994 5.96875,6.8125 2.67171,0.19729 5.19462,-1.35124 6.5625,-3.5625 -0.86842,6.99342 10.12864,2.12136 14.8125,3.5625 -0.1651,-5.15569 2.1164,-12.6328 -3.09375,-12.9375 5.80051,0.9113 1.78034,-7.63298 2.6875,-11.4375 -4.5806,1.40899 -15.34655,-3.36739 -14.40625,3.5625 -2.46518,-5.00061 -9.76322,-3.49495 -14.5625,-3.5625 l 0,1 0,1 z m -23.53125,3.15625 c 2.33353,3.88441 1.9964,9.85392 0.21875,13.90625 -1.91672,0.006 -1.61761,-4.2338 -1.8125,-5.75 0.2104,-2.52974 -0.48942,-6.33587 1.59375,-8.15625 z m 113.9375,0 c 2.30401,3.91795 2.05787,9.9673 0.15625,13.96875 -2.40968,-0.90692 -1.48495,-5.80725 -1.75,-8.15625 0.24963,-1.82553 -0.0459,-4.62902 1.59375,-5.8125 z m -198.375,0.0625 c 2.57331,2.48249 0.28642,8.73631 5.71875,6.9375 -0.29892,0.62258 -4.80813,1.25949 -4.25,5.59375 -1.37264,3.84083 -3.23862,-1.5551 -2.84375,-3.21875 0.0981,-2.87922 -0.56903,-7.0695 1.375,-9.3125 z M 176,133.26339 c -0.31434,6.87498 1.33897,-0.64363 0,0 z m 45.78125,0 c 1.09537,1.02141 -0.35419,7.19009 -0.0937,2.34375 0.14014,-0.64133 -0.21227,-1.87608 0.0937,-2.34375 z m -39.96875,0.0625 c -0.31854,3.49478 -1.27558,1.07178 0,0 z m 26.25,0 c 0.36571,2.46219 0.44068,13.93876 -2.0625,7.9375 -0.0336,-2.0485 2.63029,-4.36994 1.8125,-7.09375 0.29581,-0.16286 -0.58951,-1.18445 0.25,-0.84375 z m 6.28125,0 c 2.11223,1.44518 1.84434,11.59286 0.125,13.25 -0.33581,-4.08421 -0.0992,-8.95545 -0.125,-13.25 z m 44.71875,0 c 2.40658,2.6799 1.39077,8.03779 1.03125,11.5625 -0.0844,1.57929 -2.41491,2.65146 -1.34375,-0.3125 0.21959,-3.59313 -0.4306,-8.19707 0.3125,-11.25 z m 21.3125,0 c 0.68192,2.96696 -0.87735,0.11284 0,0 z m 24.75,0 c 2.4154,2.71636 1.38529,8.02873 1.03125,11.5625 -0.0863,1.54893 -2.44957,2.75679 -1.34375,-0.3125 0.21959,-3.59313 -0.4306,-8.19707 0.3125,-11.25 z m 7.8125,0 c 0.0721,5.12552 0.10108,3.36122 -0.90625,0.0937 l -0.0312,-0.0937 0.9375,0 z m -111.71875,0.0312 c 0.73596,1.3109 -0.39337,5.65115 -0.125,1.375 0.91667,0.41667 -0.54167,-1.54166 0.125,-1.375 z m 85.53125,0 c 0.73596,1.3109 -0.39337,5.65115 -0.125,1.375 0.91667,0.41667 -0.54167,-1.54166 0.125,-1.375 z m 71.6875,6.9375 c -3.01129,9.09475 -0.91103,-1.24397 -5.5,-1.28125 6.65627,1.66068 0.37386,-9.31412 5.5,1.28125 z m 7.875,-2.5625 c 1.29031,1.40487 8.9763,6.43719 2.5,8.84375 -4.44193,-0.1357 -3.76687,-16.10451 -2.5,-8.84375 z m -201.71875,1.28125 c 8.27745,-0.50027 -0.96479,3.35055 0,0 z m 73.03125,0.78125 c 4.3225,-2.09004 2.53018,8.7492 -1.5625,6.78125 0.7297,-1.8896 -1.65263,-7.48106 1.5625,-6.78125 z m 103.1875,0 c 6.81863,-0.1644 -1.52906,13.02905 -1.5625,3.78125 0.497,-1.38719 -1.27927,-4.79476 1.5625,-3.78125 z m -27.875,6.78125 c -1.80354,0.5079 0.99294,-6.68728 0,-1.90625 l 0,1 0,0.90625 z m -138.6875,0 c -4.00746,1.07114 -1.08031,-7.83201 0,0 z m 106.15625,0 c -0.97183,0.0666 0.70146,-3.02841 0,0 z M 245.75,145.60714 c 1.06097,2.74176 -4.71491,-0.53074 0,0 z"
           id="path3189"
           inkscape:connector-curvature="0" />
      </g>
      <g
         id="use3098"
         style="font-size:40px;font-style:normal;font-variant:normal;font-weight:normal;font-stretch:normal;line-height:125%;letter-spacing:0px;word-spacing:0px;fill:#241c1c;fill-opacity:1;stroke:none;font-family:Castellar;-inkscape-font-specification:Castellar"
         transform="matrix(0.64203314,0,0,1,59.602931,-59.285716)">
        <path
           inkscape:connector-curvature="0"
           id="path3117"
           style="font-size:28.00000191px;font-weight:bold;text-align:start;writing-mode:lr-tb;text-anchor:start;font-family:Century;-inkscape-font-specification:Century Bold"
           d="m 146.07739,188.3334 16.29346,0 0.39392,7.23584 -1.46118,0 c -0.37485,-2.21141 -0.92515,-3.71147 -1.65088,-4.50018 -0.72576,-0.78868 -1.66086,-1.18303 -2.8053,-1.18305 l -3.88708,0 c -0.2199,2e-5 -0.38339,0.0564 -0.49048,0.16919 -0.10711,0.11282 -0.16065,0.30935 -0.16065,0.5896 l 0,6.79065 1.40137,0 c 0.8129,1e-5 1.47826,-0.29749 1.9961,-0.89251 0.51781,-0.595 0.80064,-1.62452 0.84851,-3.08857 l 1.51843,0 0,9.72925 -1.51929,0 c -0.0479,-1.63093 -0.33554,-2.7469 -0.86304,-3.3479 -0.52751,-0.60098 -1.23674,-0.90148 -2.12768,-0.90149 l -1.2544,0 0,7.6084 c 0,0.20508 0.0638,0.35818 0.19141,0.45929 0.1276,0.10112 0.3791,0.15168 0.75452,0.15167 l 3.06933,0 c 3.1525,1e-5 4.98339,-2.12682 5.49268,-6.38049 l 1.53723,0 -0.35119,7.93311 -16.92579,0 0,-1.55262 1.65515,0 c 0.44889,1e-5 0.74996,-0.0655 0.9032,-0.19653 0.15324,-0.13102 0.22986,-0.33183 0.22986,-0.60242 l 0,-15.70984 c 0,-0.27171 -0.0647,-0.4661 -0.19397,-0.58319 -0.12932,-0.11704 -0.35319,-0.17558 -0.67163,-0.1756 l -1.92261,0 z" />
        <path
           inkscape:connector-curvature="0"
           id="path3119"
           style="font-size:28.00000191px;font-weight:bold;text-align:start;writing-mode:lr-tb;text-anchor:start;font-family:Century;-inkscape-font-specification:Century Bold"
           d="m 165.69654,188.3334 5.18164,0 11.50744,15.57654 0,-10.99988 c -10e-6,-1.06297 -0.23244,-1.83942 -0.69726,-2.32934 -0.42157,-0.44717 -1.15444,-0.68045 -2.19861,-0.69983 l 0,-1.54749 7.53235,0 0,1.55261 c -0.84996,2e-5 -1.42403,0.084 -1.72223,0.25208 -0.29824,0.16807 -0.56612,0.48964 -0.80365,0.96472 -0.23757,0.47512 -0.35634,1.00148 -0.35632,1.5791 l 0,16.0243 -1.71924,0 -11.91333,-16.2063 0,11.68347 c -1e-5,1.014 0.24409,1.75912 0.7323,2.23535 0.48819,0.47624 1.36119,0.72404 2.61902,0.74341 l 0,1.54407 -8.16211,0 0,-1.53724 c 1.05159,-0.0393 1.82832,-0.32399 2.3302,-0.85406 0.50186,-0.53007 0.7528,-1.18703 0.7528,-1.97089 l 0,-13.34204 -0.14782,-0.15637 c -0.42725,-0.46141 -0.71493,-0.72744 -0.86304,-0.7981 -0.22331,-0.10764 -0.51441,-0.16148 -0.87329,-0.1615 l -1.19885,0 z" />
        <path
           inkscape:connector-curvature="0"
           id="path3121"
           style="font-size:28.00000191px;font-weight:bold;text-align:start;writing-mode:lr-tb;text-anchor:start;font-family:Century;-inkscape-font-specification:Century Bold"
           d="m 203.49927,189.87491 0.84424,-1.91663 1.32532,0 0.36487,8.52271 -1.43726,0 c -0.61639,-2.34415 -1.37888,-4.09358 -2.28748,-5.2483 -1.00945,-1.1393 -2.23166,-1.70896 -3.66662,-1.70898 -1.55348,2e-5 -2.83009,0.7091 -3.82984,2.12726 -0.99976,1.41819 -1.49964,3.871 -1.49963,7.35846 -1e-5,2.92522 0.57678,5.14034 1.73035,6.64538 0.96386,1.24984 2.31538,1.87476 4.05456,1.87476 1.52497,0 2.80543,-0.49033 3.84137,-1.47101 1.03592,-0.98067 1.72734,-2.56361 2.07428,-4.74884 l 1.51673,0 c -0.2877,2.62558 -1.12767,4.59731 -2.5199,5.91522 -1.39227,1.31792 -3.15053,1.97687 -5.27478,1.97687 -1.71355,0 -3.28496,-0.42995 -4.71424,-1.28985 -1.42928,-0.85991 -2.56789,-2.08966 -3.41583,-3.68927 -0.84794,-1.59961 -1.27191,-3.35075 -1.27191,-5.25342 0,-2.01659 0.43622,-3.911 1.30865,-5.68323 0.87244,-1.7722 1.99866,-3.10991 3.37867,-4.01312 1.37999,-0.90318 2.87122,-1.35478 4.47369,-1.3548 0.8955,2e-5 1.7611,0.15312 2.5968,0.45929 0.83568,0.30621 1.63833,0.80538 2.40796,1.4975 z" />
        <path
           inkscape:connector-curvature="0"
           id="path3123"
           style="font-size:28.00000191px;font-weight:bold;text-align:start;writing-mode:lr-tb;text-anchor:start;font-family:Century;-inkscape-font-specification:Century Bold"
           d="m 208.41602,188.3334 10.54187,0 c 2.05761,2e-5 3.66548,0.47754 4.82361,1.43256 1.15811,0.95505 1.73717,2.20418 1.73719,3.74737 -2e-5,0.92572 -0.23045,1.75187 -0.69129,2.47846 -0.46087,0.72661 -1.12097,1.30368 -1.98028,1.7312 -0.85935,0.42754 -2.09566,0.68318 -3.70893,0.76691 1.17007,0.10312 2.01275,0.33369 2.52802,0.69171 0.51524,0.35804 0.92597,0.81719 1.23218,1.37744 0.30617,0.56027 0.64925,1.66812 1.02923,3.32355 0.26203,1.14388 0.53233,1.91235 0.81091,2.30542 0.17658,0.25065 0.3452,0.37598 0.50586,0.37597 0.15493,1e-5 0.33181,-0.17046 0.53064,-0.51141 0.1988,-0.34094 0.32839,-1.09076 0.3888,-2.24945 l 1.49963,0 c -0.18231,3.40259 -1.40395,5.10388 -3.66492,5.10388 -0.72348,0 -1.34911,-0.18257 -1.87689,-0.54773 -0.5278,-0.36515 -0.9213,-0.89237 -1.18048,-1.58166 -0.19768,-0.50814 -0.41387,-1.795 -0.64856,-3.8606 -0.12989,-1.15356 -0.32871,-1.96105 -0.59643,-2.42248 -0.26776,-0.46142 -0.68603,-0.83241 -1.25483,-1.11298 -0.56881,-0.28055 -1.25454,-0.42083 -2.05719,-0.42084 l -1.32104,0 0,7.51526 c -1e-5,0.24951 0.0459,0.41044 0.13757,0.48279 0.16349,0.12988 0.43721,0.19483 0.82117,0.19482 l 2.20459,0 0,1.55262 -9.81043,0 0,-1.55262 2.2439,0 c 0.35148,1e-5 0.597,-0.059 0.73657,-0.17688 0.13957,-0.11791 0.20935,-0.28483 0.20935,-0.50073 l 0,-15.84485 c 0,-0.2569 -0.0725,-0.44531 -0.21747,-0.56525 -0.14498,-0.11989 -0.3878,-0.17985 -0.72845,-0.17987 l -2.2439,0 z m 6.6471,9.11573 2.0448,0 c 1.50674,1e-5 2.67113,-0.27471 3.49316,-0.82416 0.82201,-0.54943 1.23302,-1.53765 1.23304,-2.96466 -2e-5,-0.99746 -0.15468,-1.77662 -0.46399,-2.33747 -0.30934,-0.56081 -0.71181,-0.94277 -1.2074,-1.14587 -0.49562,-0.20307 -1.51845,-0.30461 -3.06848,-0.30463 -0.99293,2e-5 -1.57968,0.0533 -1.76026,0.15979 -0.18059,0.10655 -0.27088,0.28827 -0.27087,0.54517 z" />
        <path
           inkscape:connector-curvature="0"
           id="path3125"
           style="font-size:28.00000191px;font-weight:bold;text-align:start;writing-mode:lr-tb;text-anchor:start;font-family:Century;-inkscape-font-specification:Century Bold"
           d="m 229.02637,188.3334 9.74378,0 0,1.55261 -1.86877,0 c -0.61012,2e-5 -0.97841,0.0601 -1.10486,0.1803 -0.12648,0.12022 -0.18971,0.4247 -0.1897,0.91345 l 0,15.01343 c -1e-5,0.52694 0.049,0.83684 0.14697,0.92969 0.16121,0.15381 0.48107,0.23072 0.9596,0.23071 l 2.05676,0 0,1.55262 -9.74378,0 0,-1.55262 2.03028,0 c 0.51782,1e-5 0.83839,-0.0617 0.96173,-0.18499 0.12333,-0.12333 0.18499,-0.44847 0.185,-0.97541 l 0,-15.01343 c -1e-5,-0.48989 -0.0442,-0.77158 -0.13245,-0.84509 -0.20166,-0.16575 -0.59786,-0.24864 -1.1886,-0.24866 l -1.85596,0 z" />
        <path
           inkscape:connector-curvature="0"
           id="path3127"
           style="font-size:28.00000191px;font-weight:bold;text-align:start;writing-mode:lr-tb;text-anchor:start;font-family:Century;-inkscape-font-specification:Century Bold"
           d="m 240.56458,188.3334 10.07276,0 c 2.28319,2e-5 4.03689,0.52739 5.26111,1.58209 1.22418,1.05475 1.83628,2.42835 1.8363,4.12079 -2e-5,1.70103 -0.57538,3.00669 -1.72607,3.917 -1.52102,1.20769 -3.4009,1.81153 -5.63965,1.81152 l -3.23767,0 0,6.4967 c -1e-5,0.32186 0.0578,0.53492 0.17346,0.63916 0.19709,0.16863 0.46797,0.25294 0.81262,0.25293 l 2.55237,0 0,1.55262 -10.10523,0 0,-1.55262 2.28492,0 c 0.31501,1e-5 0.53348,-0.0521 0.65539,-0.15637 0.1219,-0.10424 0.18286,-0.25122 0.18286,-0.44092 l 0,-15.80469 c 0,-0.31728 -0.0845,-0.54087 -0.25335,-0.67077 -0.16891,-0.12987 -0.5382,-0.19481 -1.10785,-0.19483 l -1.76197,0 z m 6.56678,9.90613 2.39343,0 c 1.62352,1e-5 2.78364,-0.32769 3.48035,-0.98309 0.69668,-0.65539 1.04502,-1.76466 1.04504,-3.32782 -2e-5,-1.09772 -0.15696,-1.92943 -0.47083,-2.49512 -0.31389,-0.56566 -0.77503,-0.98507 -1.38342,-1.25824 -0.60841,-0.27313 -1.63722,-0.40971 -3.08642,-0.40973 -0.91945,2e-5 -1.479,0.0709 -1.67865,0.21277 -0.19968,0.14186 -0.29951,0.39964 -0.2995,0.77331 z" />
        <path
           inkscape:connector-curvature="0"
           id="path3129"
           style="font-size:28.00000191px;font-weight:bold;text-align:start;writing-mode:lr-tb;text-anchor:start;font-family:Century;-inkscape-font-specification:Century Bold"
           d="m 259.47108,188.3334 16.65491,0 0.40673,8.03992 -1.4945,0 c -0.60728,-4.40518 -2.10834,-6.60777 -4.50318,-6.60779 -0.4358,2e-5 -0.72035,0.062 -0.85364,0.18585 -0.13331,0.12392 -0.19996,0.35506 -0.19995,0.69342 l 0,15.844 c -10e-6,0.24325 0.0618,0.41486 0.18543,0.51483 0.1236,0.1 0.36372,0.14997 0.72034,0.14996 l 2.29858,0 0,1.55262 -9.81128,0 0,-1.55262 2.57971,0 c 0.21988,1e-5 0.3811,-0.0483 0.48364,-0.14483 0.10254,-0.0966 0.15381,-0.23399 0.15381,-0.4123 l 0,-16.07299 c 0,-0.25861 -0.0729,-0.44959 -0.21875,-0.57294 -0.14584,-0.12331 -0.40589,-0.18498 -0.78015,-0.185 -1.18775,2e-5 -2.18779,0.57367 -3.00012,1.72095 -0.68531,0.96787 -1.19287,2.59681 -1.52271,4.88684 l -1.54235,0 z" />
        <path
           inkscape:connector-curvature="0"
           id="path3131"
           style="font-size:28.00000191px;font-weight:bold;text-align:start;writing-mode:lr-tb;text-anchor:start;font-family:Century;-inkscape-font-specification:Century Bold"
           d="m 286.68153,187.91812 1.31934,0 7.18628,18.31177 c 0.24038,0.6158 0.73314,0.92371 1.47827,0.9237 l 0.91687,0 0,1.55262 -8.50989,0 0,-1.55262 0.93055,0 c 0.7713,1e-5 1.30422,-0.0778 1.59875,-0.23327 0.12759,-0.0695 0.19139,-0.18201 0.19141,-0.33753 -2e-5,-0.11564 -0.0291,-0.25321 -0.0872,-0.41272 l -1.5697,-4.00586 -7.40332,0 -0.85706,2.23792 c -0.22616,0.6027 -0.33924,1.07951 -0.33923,1.43042 -1e-5,0.3549 0.17089,0.6638 0.51269,0.9267 0.34179,0.2629 0.86617,0.39435 1.57312,0.39434 l 0.97071,0 0,1.55262 -7.78614,0 0,-1.55262 c 0.89665,1e-5 1.54378,-0.1491 1.94141,-0.44732 0.39762,-0.29822 0.77531,-0.8948 1.13306,-1.78974 z m -0.18286,4.36731 -3.24621,8.28686 6.40954,0 z" />
        <path
           inkscape:connector-curvature="0"
           id="path3133"
           style="font-size:28.00000191px;font-weight:bold;text-align:start;writing-mode:lr-tb;text-anchor:start;font-family:Century;-inkscape-font-specification:Century Bold"
           d="m 298.23512,188.3334 10.54187,0 c 1.5677,2e-5 2.84716,0.26805 3.83838,0.80408 1.49706,0.7326 2.72055,1.91109 3.67047,3.53546 0.94989,1.6244 1.42485,3.53975 1.42487,5.74603 -2e-5,1.81609 -0.28457,3.45843 -0.85364,4.92701 -0.43296,1.13021 -1.1006,2.12113 -2.00293,2.97277 -0.90236,0.85165 -2.00437,1.49138 -3.30603,1.91919 -0.96445,0.31218 -2.24562,0.46827 -3.8435,0.46827 l -9.46949,0 0,-1.55262 2.17725,0 c 0.39705,1e-5 0.65625,-0.0503 0.77759,-0.15081 0.12133,-0.10055 0.182,-0.27187 0.182,-0.51398 l 0,-15.96533 c 0,-0.19538 -0.0684,-0.35047 -0.20507,-0.46528 -0.13673,-0.11476 -0.33896,-0.17216 -0.60669,-0.17218 l -2.32508,0 z m 7.48621,1.55261 c -0.32244,2e-5 -0.54959,0.0583 -0.68146,0.17475 -0.13188,0.11651 -0.19782,0.30664 -0.19781,0.57037 l 0,15.81751 c -1e-5,0.23698 0.0789,0.41372 0.23669,0.53021 0.15779,0.1165 0.47025,0.17475 0.93738,0.17474 l 1.68848,0 c 1.44522,1e-5 2.71015,-0.37141 3.7948,-1.11425 0.68585,-0.47909 1.21279,-1.16752 1.58081,-2.06531 0.51438,-1.23901 0.77159,-2.95654 0.7716,-5.15259 -10e-6,-3.24535 -0.57651,-5.75841 -1.72949,-7.53919 -0.88755,-0.9308 -2.27068,-1.39622 -4.14941,-1.39624 z" />
        <path
           inkscape:connector-curvature="0"
           id="path3135"
           style="font-size:28.00000191px;font-weight:bold;text-align:start;writing-mode:lr-tb;text-anchor:start;font-family:Century;-inkscape-font-specification:Century Bold"
           d="m 329.92738,187.91812 c 1.72777,2e-5 3.34647,0.45475 4.85608,1.3642 1.50959,0.90948 2.6895,2.17512 3.53974,3.79693 0.8502,1.62184 1.27531,3.43764 1.27533,5.44739 -2e-5,2.01262 -0.42698,3.83625 -1.28089,5.47089 -0.85394,1.63464 -2.03043,2.91068 -3.52948,3.82812 -1.49908,0.91744 -3.09256,1.37616 -4.78045,1.37616 -1.65602,0 -3.20421,-0.45017 -4.6446,-1.35052 -1.44039,-0.90035 -2.59353,-2.1818 -3.45941,-3.84436 -0.86589,-1.66255 -1.29883,-3.5027 -1.29883,-5.52045 0,-1.98811 0.41942,-3.78667 1.25824,-5.39569 0.83883,-1.60899 1.9931,-2.87336 3.46283,-3.79309 1.46972,-0.9197 3.00353,-1.37956 4.60144,-1.37958 z m 0.21448,1.5791 c -1.63551,2e-5 -2.97051,0.69258 -4.005,2.0777 -1.03451,1.38515 -1.55177,3.68444 -1.55176,6.89789 -1e-5,3.49146 0.52835,5.88489 1.58508,7.1803 1.05672,1.29541 2.35383,1.94311 3.89136,1.94311 1.07266,0 2.01801,-0.29095 2.83606,-0.87286 0.81802,-0.58191 1.47598,-1.52228 1.97388,-2.82111 0.49786,-1.29882 0.74681,-3.02375 0.74682,-5.1748 -10e-6,-2.3413 -0.23471,-4.16179 -0.7041,-5.46149 -0.46942,-1.29967 -1.12524,-2.25271 -1.96747,-2.85913 -0.84226,-0.60639 -1.77721,-0.90959 -2.80487,-0.90961 z" />
        <path
           inkscape:connector-curvature="0"
           id="path3137"
           style="font-size:28.00000191px;font-weight:bold;text-align:start;writing-mode:lr-tb;text-anchor:start;font-family:Century;-inkscape-font-specification:Century Bold"
           d="m 341.63478,188.3334 10.54187,0 c 2.05761,2e-5 3.66547,0.47754 4.82361,1.43256 1.15811,0.95505 1.73717,2.20418 1.73718,3.74737 -10e-6,0.92572 -0.23044,1.75187 -0.69128,2.47846 -0.46087,0.72661 -1.12097,1.30368 -1.98029,1.7312 -0.85935,0.42754 -2.09565,0.68318 -3.70892,0.76691 1.17007,0.10312 2.01274,0.33369 2.52801,0.69171 0.51525,0.35804 0.92597,0.81719 1.23218,1.37744 0.30618,0.56027 0.64926,1.66812 1.02924,3.32355 0.26203,1.14388 0.53233,1.91235 0.81091,2.30542 0.17658,0.25065 0.3452,0.37598 0.50586,0.37597 0.15493,1e-5 0.33181,-0.17046 0.53064,-0.51141 0.19879,-0.34094 0.32839,-1.09076 0.38879,-2.24945 l 1.49964,0 c -0.18231,3.40259 -1.40395,5.10388 -3.66492,5.10388 -0.72348,0 -1.34911,-0.18257 -1.87689,-0.54773 -0.52781,-0.36515 -0.9213,-0.89237 -1.18048,-1.58166 -0.19769,-0.50814 -0.41387,-1.795 -0.64856,-3.8606 -0.1299,-1.15356 -0.32871,-1.96105 -0.59644,-2.42248 -0.26775,-0.46142 -0.68602,-0.83241 -1.25482,-1.11298 -0.56882,-0.28055 -1.25455,-0.42083 -2.05719,-0.42084 l -1.32104,0 0,7.51526 c -10e-6,0.24951 0.0458,0.41044 0.13757,0.48279 0.16348,0.12988 0.43721,0.19483 0.82117,0.19482 l 2.20459,0 0,1.55262 -9.81043,0 0,-1.55262 2.2439,0 c 0.35148,1e-5 0.597,-0.059 0.73657,-0.17688 0.13956,-0.11791 0.20935,-0.28483 0.20935,-0.50073 l 0,-15.84485 c 0,-0.2569 -0.0725,-0.44531 -0.21747,-0.56525 -0.14498,-0.11989 -0.3878,-0.17985 -0.72845,-0.17987 l -2.2439,0 z m 6.6471,9.11573 2.0448,0 c 1.50674,1e-5 2.67113,-0.27471 3.49316,-0.82416 0.82201,-0.54943 1.23302,-1.53765 1.23303,-2.96466 -10e-6,-0.99746 -0.15467,-1.77662 -0.46399,-2.33747 -0.30934,-0.56081 -0.7118,-0.94277 -1.20739,-1.14587 -0.49562,-0.20307 -1.51845,-0.30461 -3.06849,-0.30463 -0.99292,2e-5 -1.57967,0.0533 -1.76025,0.15979 -0.18059,0.10655 -0.27088,0.28827 -0.27087,0.54517 z" />
        <path
           inkscape:connector-curvature="0"
           id="path3139"
           style="font-size:28.00000191px;font-weight:bold;text-align:start;writing-mode:lr-tb;text-anchor:start;font-family:Century;-inkscape-font-specification:Century Bold"
           d="m 369.98512,188.3334 10.54187,0 c 1.5677,2e-5 2.84716,0.26805 3.83838,0.80408 1.49706,0.7326 2.72055,1.91109 3.67047,3.53546 0.94989,1.6244 1.42485,3.53975 1.42487,5.74603 -2e-5,1.81609 -0.28457,3.45843 -0.85364,4.92701 -0.43296,1.13021 -1.1006,2.12113 -2.00293,2.97277 -0.90236,0.85165 -2.00437,1.49138 -3.30603,1.91919 -0.96445,0.31218 -2.24562,0.46827 -3.8435,0.46827 l -9.46949,0 0,-1.55262 2.17725,0 c 0.39705,1e-5 0.65625,-0.0503 0.77759,-0.15081 0.12133,-0.10055 0.182,-0.27187 0.182,-0.51398 l 0,-15.96533 c 0,-0.19538 -0.0684,-0.35047 -0.20507,-0.46528 -0.13673,-0.11476 -0.33896,-0.17216 -0.60669,-0.17218 l -2.32508,0 z m 7.48621,1.55261 c -0.32244,2e-5 -0.54959,0.0583 -0.68146,0.17475 -0.13188,0.11651 -0.19782,0.30664 -0.19781,0.57037 l 0,15.81751 c -1e-5,0.23698 0.0789,0.41372 0.23669,0.53021 0.15779,0.1165 0.47025,0.17475 0.93738,0.17474 l 1.68848,0 c 1.44522,1e-5 2.71015,-0.37141 3.7948,-1.11425 0.68585,-0.47909 1.21279,-1.16752 1.58081,-2.06531 0.51438,-1.23901 0.77159,-2.95654 0.7716,-5.15259 -10e-6,-3.24535 -0.57651,-5.75841 -1.72949,-7.53919 -0.88755,-0.9308 -2.27068,-1.39622 -4.14941,-1.39624 z" />
        <path
           inkscape:connector-curvature="0"
           id="path3141"
           style="font-size:28.00000191px;font-weight:bold;text-align:start;writing-mode:lr-tb;text-anchor:start;font-family:Century;-inkscape-font-specification:Century Bold"
           d="m 392.66335,188.3334 16.29345,0 0.39392,7.23584 -1.46118,0 c -0.37485,-2.21141 -0.92514,-3.71147 -1.65088,-4.50018 -0.72576,-0.78868 -1.66086,-1.18303 -2.80529,-1.18305 l -3.88709,0 c -0.2199,2e-5 -0.38339,0.0564 -0.49048,0.16919 -0.1071,0.11282 -0.16065,0.30935 -0.16064,0.5896 l 0,6.79065 1.40136,0 c 0.8129,1e-5 1.47827,-0.29749 1.9961,-0.89251 0.51781,-0.595 0.80065,-1.62452 0.84851,-3.08857 l 1.51843,0 0,9.72925 -1.51929,0 c -0.0479,-1.63093 -0.33554,-2.7469 -0.86303,-3.3479 -0.52752,-0.60098 -1.23675,-0.90148 -2.12769,-0.90149 l -1.25439,0 0,7.6084 c -10e-6,0.20508 0.0638,0.35818 0.1914,0.45929 0.1276,0.10112 0.3791,0.15168 0.75452,0.15167 l 3.06934,0 c 3.15249,1e-5 4.98338,-2.12682 5.49267,-6.38049 l 1.53723,0 -0.35119,7.93311 -16.92578,0 0,-1.55262 1.65515,0 c 0.44889,1e-5 0.74995,-0.0655 0.9032,-0.19653 0.15323,-0.13102 0.22985,-0.33183 0.22985,-0.60242 l 0,-15.70984 c 0,-0.27171 -0.0647,-0.4661 -0.19397,-0.58319 -0.12931,-0.11704 -0.35319,-0.17558 -0.67163,-0.1756 l -1.9226,0 z" />
        <path
           inkscape:connector-curvature="0"
           id="path3143"
           style="font-size:28.00000191px;font-weight:bold;text-align:start;writing-mode:lr-tb;text-anchor:start;font-family:Century;-inkscape-font-specification:Century Bold"
           d="m 420.19766,188.3334 16.65491,0 0.40674,8.03992 -1.49451,0 c -0.60727,-4.40518 -2.10833,-6.60777 -4.50317,-6.60779 -0.4358,2e-5 -0.72035,0.062 -0.85364,0.18585 -0.13331,0.12392 -0.19996,0.35506 -0.19995,0.69342 l 0,15.844 c -10e-6,0.24325 0.0618,0.41486 0.18542,0.51483 0.12361,0.1 0.36372,0.14997 0.72034,0.14996 l 2.29859,0 0,1.55262 -9.81128,0 0,-1.55262 2.57971,0 c 0.21988,1e-5 0.38109,-0.0483 0.48364,-0.14483 0.10253,-0.0966 0.1538,-0.23399 0.15381,-0.4123 l 0,-16.07299 c -10e-6,-0.25861 -0.0729,-0.44959 -0.21875,-0.57294 -0.14584,-0.12331 -0.40589,-0.18498 -0.78015,-0.185 -1.18775,2e-5 -2.18779,0.57367 -3.00013,1.72095 -0.6853,0.96787 -1.19287,2.59681 -1.5227,4.88684 l -1.54236,0 z" />
        <path
           inkscape:connector-curvature="0"
           id="path3145"
           style="font-size:28.00000191px;font-weight:bold;text-align:start;writing-mode:lr-tb;text-anchor:start;font-family:Century;-inkscape-font-specification:Century Bold"
           d="m 439.53055,188.3334 16.29346,0 0.39392,7.23584 -1.46118,0 c -0.37486,-2.21141 -0.92515,-3.71147 -1.65088,-4.50018 -0.72577,-0.78868 -1.66087,-1.18303 -2.8053,-1.18305 l -3.88709,0 c -0.21989,2e-5 -0.38339,0.0564 -0.49048,0.16919 -0.1071,0.11282 -0.16065,0.30935 -0.16064,0.5896 l 0,6.79065 1.40137,0 c 0.81289,1e-5 1.47826,-0.29749 1.99609,-0.89251 0.51781,-0.595 0.80065,-1.62452 0.84851,-3.08857 l 1.51843,0 0,9.72925 -1.51928,0 c -0.0479,-1.63093 -0.33554,-2.7469 -0.86304,-3.3479 -0.52752,-0.60098 -1.23674,-0.90148 -2.12769,-0.90149 l -1.25439,0 0,7.6084 c -10e-6,0.20508 0.0638,0.35818 0.19141,0.45929 0.12759,0.10112 0.3791,0.15168 0.75451,0.15167 l 3.06934,0 c 3.15249,1e-5 4.98338,-2.12682 5.49268,-6.38049 l 1.53723,0 -0.3512,7.93311 -16.92578,0 0,-1.55262 1.65515,0 c 0.44889,1e-5 0.74995,-0.0655 0.9032,-0.19653 0.15323,-0.13102 0.22985,-0.33183 0.22986,-0.60242 l 0,-15.70984 c -10e-6,-0.27171 -0.0647,-0.4661 -0.19397,-0.58319 -0.12932,-0.11704 -0.3532,-0.17558 -0.67163,-0.1756 l -1.92261,0 z" />
        <path
           inkscape:connector-curvature="0"
           id="path3147"
           style="font-size:28.00000191px;font-weight:bold;text-align:start;writing-mode:lr-tb;text-anchor:start;font-family:Century;-inkscape-font-specification:Century Bold"
           d="m 458.51907,188.3334 8.7389,0 0,1.55261 -1.25269,0 c -0.63062,2e-5 -1.02412,0.0399 -1.18048,0.11963 -0.15638,0.0798 -0.23457,0.15412 -0.23456,0.22303 -10e-6,0.0866 0.0541,0.25038 0.16235,0.49133 l 3.71021,5.57642 2.66431,-4.29981 c 0.34406,-0.52407 0.5161,-0.93451 0.51611,-1.23132 -10e-6,-0.25291 -0.12719,-0.4607 -0.38153,-0.62336 -0.25437,-0.16261 -0.89139,-0.24878 -1.91107,-0.25848 l 0,-1.55005 7.7998,0 0,1.55261 c -0.92515,2e-5 -1.59621,0.1225 -2.01318,0.36744 -0.57196,0.33156 -1.08949,0.78387 -1.55261,1.35693 l -4.07508,6.04553 6.20362,8.88074 c 0.15379,0.22331 0.33893,0.38068 0.55542,0.47211 0.21645,0.0914 0.72943,0.14256 1.53894,0.15338 l 0,1.54407 -8.45691,0 0,-1.55262 1.38684,0 c 0.46597,1e-5 0.76461,-0.0423 0.89593,-0.12689 0.1313,-0.0846 0.19695,-0.17901 0.19696,-0.28326 -1e-5,-0.15381 -0.0222,-0.36202 -0.0667,-0.62464 l -4.08618,-5.8977 -2.75488,4.20068 c -0.43637,0.62492 -0.65455,1.17094 -0.65454,1.63806 -1e-5,0.36288 0.10723,0.63589 0.32171,0.81903 0.21447,0.18315 0.55214,0.27473 1.013,0.27472 l 1.07837,0 0,1.55262 -8.16211,0 0,-1.53894 c 0.9183,-0.0308 1.66811,-0.22801 2.24945,-0.59174 0.58134,-0.36373 1.16282,-0.97113 1.74445,-1.82221 l 4.14343,-5.90283 -5.36364,-7.61865 c -0.40732,-0.58673 -0.75452,-0.95573 -1.04163,-1.107 -0.28711,-0.15122 -0.86446,-0.23197 -1.73206,-0.24224 z" />
        <path
           inkscape:connector-curvature="0"
           id="path3149"
           style="font-size:28.00000191px;font-weight:bold;text-align:start;writing-mode:lr-tb;text-anchor:start;font-family:Century;-inkscape-font-specification:Century Bold"
           d="m 479.04141,188.3334 16.65491,0 0.40674,8.03992 -1.49451,0 c -0.60727,-4.40518 -2.10833,-6.60777 -4.50317,-6.60779 -0.4358,2e-5 -0.72035,0.062 -0.85364,0.18585 -0.13331,0.12392 -0.19996,0.35506 -0.19995,0.69342 l 0,15.844 c -10e-6,0.24325 0.0618,0.41486 0.18542,0.51483 0.12361,0.1 0.36372,0.14997 0.72034,0.14996 l 2.29859,0 0,1.55262 -9.81128,0 0,-1.55262 2.57971,0 c 0.21988,1e-5 0.38109,-0.0483 0.48364,-0.14483 0.10253,-0.0966 0.1538,-0.23399 0.15381,-0.4123 l 0,-16.07299 c -10e-6,-0.25861 -0.0729,-0.44959 -0.21875,-0.57294 -0.14584,-0.12331 -0.40589,-0.18498 -0.78015,-0.185 -1.18775,2e-5 -2.18779,0.57367 -3.00013,1.72095 -0.6853,0.96787 -1.19287,2.59681 -1.5227,4.88684 l -1.54236,0 z" />
        <path
           inkscape:connector-curvature="0"
           id="path3151"
           style="font-size:28.00000191px;font-weight:bold;text-align:start;writing-mode:lr-tb;text-anchor:start;font-family:Century;-inkscape-font-specification:Century Bold"
           d="m 507.38834,187.91812 c 1.72777,2e-5 3.34646,0.45475 4.85608,1.3642 1.50958,0.90948 2.68949,2.17512 3.53973,3.79693 0.8502,1.62184 1.27531,3.43764 1.27533,5.44739 -2e-5,2.01262 -0.42698,3.83625 -1.28088,5.47089 -0.85394,1.63464 -2.03044,2.91068 -3.52948,3.82812 -1.49908,0.91744 -3.09257,1.37616 -4.78046,1.37616 -1.65602,0 -3.20421,-0.45017 -4.64459,-1.35052 -1.4404,-0.90035 -2.59353,-2.1818 -3.45942,-3.84436 -0.86588,-1.66255 -1.29882,-3.5027 -1.29882,-5.52045 0,-1.98811 0.41941,-3.78667 1.25824,-5.39569 0.83882,-1.60899 1.99309,-2.87336 3.46283,-3.79309 1.46972,-0.9197 3.00353,-1.37956 4.60144,-1.37958 z m 0.21447,1.5791 c -1.6355,2e-5 -2.9705,0.69258 -4.005,2.0777 -1.03451,1.38515 -1.55176,3.68444 -1.55176,6.89789 0,3.49146 0.52836,5.88489 1.58508,7.1803 1.05672,1.29541 2.35384,1.94311 3.89136,1.94311 1.07266,0 2.01802,-0.29095 2.83606,-0.87286 0.81802,-0.58191 1.47598,-1.52228 1.97388,-2.82111 0.49787,-1.29882 0.74681,-3.02375 0.74683,-5.1748 -2e-5,-2.3413 -0.23472,-4.16179 -0.70411,-5.46149 -0.46941,-1.29967 -1.12523,-2.25271 -1.96746,-2.85913 -0.84226,-0.60639 -1.77722,-0.90959 -2.80488,-0.90961 z" />
      </g>
    </g>
    <flowRoot
       xml:space="preserve"
       id="flowRoot3212"
       style="font-size:16px;font-style:normal;font-variant:normal;font-weight:normal;font-stretch:normal;line-height:125%;letter-spacing:0px;word-spacing:0px;fill:#999999;fill-opacity:1;stroke:none;font-family:Castellar;-inkscape-font-specification:Castellar"><flowRegion
         id="flowRegion3214"><rect
           id="rect3216"
           width="280"
           height="41.42857"
           x="150"
           y="127.36218"
           style="font-size:16px;fill:#999999" /></flowRegion><flowPara
         id="flowPara3218"></flowPara></flowRoot>    <flowRoot
       xml:space="preserve"
       id="flowRoot3220"
       style="font-size:40px;font-style:normal;font-variant:normal;font-weight:normal;font-stretch:normal;line-height:125%;letter-spacing:0px;word-spacing:0px;fill:#000000;fill-opacity:1;stroke:none;font-family:Castellar;-inkscape-font-specification:Castellar"><flowRegion
         id="flowRegion3222"><rect
           id="rect3224"
           width="140.71428"
           height="50.714287"
           x="140"
           y="130.21933" /></flowRegion><flowPara
         id="flowPara3226"></flowPara></flowRoot>  </g>
  <style
     id="style2"
     type="text/css">.st2{fill:#727374}</style>
</svg>
